<svg xmlns="http://www.w3.org/2000/svg" data-info="draw.ninja" data-name="Backnumber" viewBox="0 0 100 100"><path fill="none" d="M0 0h100v100H0z"/><g stroke="#000" stroke-width=".1" stroke-linecap="round" stroke-linejoin="round" fill-rule="evenodd"><g fill="none" data-name="group" data-title="group" data-edit="1" data-centerx="50" data-centery="52.5"><path d="M3.75 15h92.5v75H3.75V15z" fill="#FFF" data-name="curve" data-title="curve" data-sw=".1" data-grad="0" data-group="group105" data-edit="1" filter="none" data-centerx="-536" data-centery="-178.5"/><path d="M7.5 18.75h85v67.5h-85v-67.5z" fill="#000" data-name="curve" data-title="curve" data-sw=".1" data-grad="0" data-group="group105" data-edit="1" filter="none" data-centerx="-536" data-centery="-178.5"/></g><g fill="none" data-name="group" data-title="group" data-edit="1" data-centerx="31.25" data-centery="42.5"><path d="M12.5 10H50v65H12.5V10z" fill="#FFF" data-name="curve" data-title="curve" data-sw=".1" data-grad="0" data-group="group176" data-edit="1" filter="none" data-centerx="-554.75" data-centery="-188.5"/><path d="M15.75 13.5h32.5v58h-32.5v-58z" fill="#000" data-name="curve" data-title="curve" data-sw=".1" data-grad="0" data-group="group176" data-edit="1" filter="none" data-centerx="-554" data-centery="-188.5"/><path d="M19.5 20h25v1.75h-25V20z" fill="#FFF" data-name="curve" data-title="curve" data-sw=".1" data-grad="0" data-group="group176" data-edit="1" filter="none" data-centerx="-554" data-centery="-210.125"/><path d="M19.5 30.4h25v1.75h-25V30.4z" fill="#FFF" data-name="curve" data-title="curve" data-sw=".1" data-grad="0" data-group="group176" data-edit="1" filter="none" data-centerx="-554" data-centery="-199.725"/><path d="M19.5 40.6h25v1.75h-25V40.6z" fill="#FFF" data-name="curve" data-title="curve" data-sw=".1" data-grad="0" data-group="group176" data-edit="1" filter="none" data-centerx="-554" data-centery="-189.525"/><path d="M19.5 51.3h25v1.75h-25V51.3z" fill="#FFF" data-name="curve" data-title="curve" data-sw=".1" data-grad="0" data-group="group176" data-edit="1" filter="none" data-centerx="-554" data-centery="-178.825"/><path d="M19.5 62.6h25v1.75h-25V62.6z" fill="#FFF" data-name="curve" data-title="curve" data-sw=".1" data-grad="0" data-group="group176" data-edit="1" filter="none" data-centerx="-554" data-centery="-167.525"/></g><g fill="none" data-name="group" data-title="group" data-edit="1" data-centerx="68.75" data-centery="42.5"><path d="M50 10h37.5v65H50V10z" fill="#FFF" data-name="curve" data-title="curve" data-sw=".1" data-grad="0" data-group="group133" data-edit="1" filter="none" data-centerx="-517.25" data-centery="-188.5"/><path d="M51.75 13.5h32.5v58h-32.5v-58z" fill="#000" data-name="curve" data-title="curve" data-sw=".1" data-grad="0" data-group="group133" data-edit="1" filter="none" data-centerx="-518" data-centery="-188.5"/><g data-name="group" data-title="group" data-edit="1" data-centerx="-517.6" data-centery="-188.825" data-group="0" fill="#FFF"><path d="M55.9 20h25v1.75h-25V20z" data-name="curve" data-title="curve" data-sw=".1" data-grad="0" data-group="group133" data-edit="1" filter="none" data-centerx="-1689.599" data-centery="-672.127"/><path d="M55.9 30.4h25v1.75h-25V30.4z" data-name="curve" data-title="curve" data-sw=".1" data-grad="0" data-group="group133" data-edit="1" filter="none" data-centerx="-1689.599" data-centery="-661.727"/><path d="M55.9 40.6h25v1.75h-25V40.6z" data-name="curve" data-title="curve" data-sw=".1" data-grad="0" data-group="group133" data-edit="1" filter="none" data-centerx="-1689.599" data-centery="-651.527"/><path d="M55.9 51.3h25v1.75h-25V51.3z" data-name="curve" data-title="curve" data-sw=".1" data-grad="0" data-group="group133" data-edit="1" filter="none" data-centerx="-1689.6" data-centery="-640.82"/><path d="M55.9 62.6h25v1.75h-25V62.6z" data-name="curve" data-title="curve" data-sw=".1" data-grad="0" data-group="group133" data-edit="1" filter="none" data-centerx="-1689.599" data-centery="-629.527"/></g></g><g id="IconPart" transform-origin="center center" fill="none" data-name="group" data-title="page" data-edit="1" data-centerx="68.75" data-centery="42.5"><g data-name="group" data-title="group" data-edit="1" data-centerx="68.4" data-centery="42.175" data-group="0" fill="#FFF"><path d="M55.9 20h25v1.75h-25V20z" data-name="curve" data-title="curve" data-sw=".1" data-grad="0" data-group="group187" data-edit="1" filter="none" data-centerx="-1689.599" data-centery="-672.127"/><path d="M55.9 30.4h25v1.75h-25V30.4z" data-name="curve" data-title="curve" data-sw=".1" data-grad="0" data-group="group187" data-edit="1" filter="none" data-centerx="-1689.599" data-centery="-661.727"/><path d="M55.9 40.6h25v1.75h-25V40.6z" data-name="curve" data-title="curve" data-sw=".1" data-grad="0" data-group="group187" data-edit="1" filter="none" data-centerx="-1689.599" data-centery="-651.527"/><path d="M55.9 51.3h25v1.75h-25V51.3z" data-name="curve" data-title="curve" data-sw=".1" data-grad="0" data-group="group187" data-edit="1" filter="none" data-centerx="-1689.6" data-centery="-640.82"/><path d="M55.9 62.6h25v1.75h-25V62.6z" data-name="curve" data-title="curve" data-sw=".1" data-grad="0" data-group="group187" data-edit="1" filter="none" data-centerx="-1689.599" data-centery="-629.527"/></g><path d="M51.75 13.5h32.5v58h-32.5v-58z" fill="#000" data-name="curve" data-title="curve" data-sw=".1" data-grad="0" data-group="group187" data-edit="1" filter="none" data-centerx="68" data-centery="42.5"/><path d="M50 10h37.5v65H50V10z" fill="#FFF" data-name="curve" data-title="curve" data-sw=".1" data-grad="0" data-group="group187" data-edit="1" filter="none" data-centerx="68.75" data-centery="42.5"/><path d="M51.75 13.5h32.5v58h-32.5v-58z" fill="#000" data-name="curve" data-title="curve" data-sw=".1" data-grad="0" data-group="group187" data-edit="1" filter="none" data-centerx="68" data-centery="42.5"/><g data-name="group" data-title="group" data-edit="1" data-centerx="68.4" data-centery="42.175" data-group="0" fill="#FFF"><path d="M55.9 20h25v1.75h-25V20z" data-name="curve" data-title="curve" data-sw=".1" data-grad="0" data-group="group187" data-edit="1" filter="none" data-centerx="-1689.599" data-centery="-672.127"/><path d="M55.9 30.4h25v1.75h-25V30.4z" data-name="curve" data-title="curve" data-sw=".1" data-grad="0" data-group="group187" data-edit="1" filter="none" data-centerx="-1689.599" data-centery="-661.727"/><path d="M55.9 40.6h25v1.75h-25V40.6z" data-name="curve" data-title="curve" data-sw=".1" data-grad="0" data-group="group187" data-edit="1" filter="none" data-centerx="-1689.599" data-centery="-651.527"/><path d="M55.9 51.3h25v1.75h-25V51.3z" data-name="curve" data-title="curve" data-sw=".1" data-grad="0" data-group="group187" data-edit="1" filter="none" data-centerx="-1689.6" data-centery="-640.82"/><path d="M55.9 62.6h25v1.75h-25V62.6z" data-name="curve" data-title="curve" data-sw=".1" data-grad="0" data-group="group187" data-edit="1" filter="none" data-centerx="-1689.599" data-centery="-629.527"/></g></g><path d="M48.25 10h3.5v65h-3.5V10z" fill="#FFF" data-name="curve" data-title="curve" data-sw=".1" data-grad="0" data-group="0" data-edit="1" filter="none" data-centerx="50" data-centery="42.5"/></g></svg>