<svg id="exportSVG" visibility="visible" xmlns="http://www.w3.org/2000/svg" xmlns:xlink="http://www.w3.org/1999/xlink" version="1.1" data-info="draw.ninja" data-name="Contact" viewBox="0 0 100 100"><defs id="defsExport"><filter id="filter0"><feGaussianBlur stdDeviation="0"></feGaussianBlur></filter><pattern id="patternImage" patternUnits="userSpaceOnUse" x="0" y="0" width="1" height="1" data-x="0" data-y="0" data-width="1" data-height="1" data-multx="1" data-multy="1" patternTransform="matrix(1,0,0,1,0,0)" data-transs="0" data-transf="0" data-source="patternImage" data-draw="1" fill="#B3B3B3" fill-opacity="1"></pattern><pattern id="pattern0" patternUnits="userSpaceOnUse" x="0" y="0" width="10" height="10" data-x="0" data-y="0" data-width="10" data-height="10" data-multx="1" data-multy="1" stroke="none" patternTransform="matrix(1,0,0,1,0,0)" data-transs="0" data-transf="0" data-source="Pattern 0" data-draw="1" fill="#B3B3B3" fill-opacity="1"><path transform="matrix(1,0,0,1,0,0)" d="M0 0 L5 0 L5 5 L0 5 L0 0 Z"></path></pattern><pattern id="pattern1" patternUnits="userSpaceOnUse" x="0" y="0" width="10" height="10" data-x="0" data-y="0" data-width="10" data-height="10" data-multx="1" data-multy="1" stroke="none" patternTransform="matrix(1,0,0,1,0,0)" data-transs="0" data-transf="0" data-source="Pattern 1" data-draw="1" fill="#B3B3B3" fill-opacity="1"><path transform="matrix(1,0,0,1,0,0)" d="M0 5 L5 0 L10 5 L5 10 L0 5 Z"></path></pattern><pattern id="pattern2" patternUnits="userSpaceOnUse" x="0" y="0" width="10" height="10" data-x="0" data-y="0" data-width="10" data-height="10" data-multx="1" data-multy="1" stroke="none" patternTransform="matrix(1,0,0,1,0,0)" data-transs="0" data-transf="0" data-source="Pattern 2" data-draw="1" fill="#B3B3B3" fill-opacity="1"><path transform="matrix(1,0,0,1,0,0)" d="M0 9 L5 1 L10 9 L0 9 Z"></path></pattern><pattern id="pattern3" patternUnits="userSpaceOnUse" x="0" y="0" width="10" height="10" data-x="0" data-y="0" data-width="10" data-height="10" data-multx="1" data-multy="1" stroke="none" patternTransform="matrix(1,0,0,1,0,0)" data-transs="0" data-transf="0" data-source="Pattern 3" data-draw="1" fill="#B3B3B3" fill-opacity="1"><path transform="matrix(1,0,0,1,0,0)" d="M0 5 C0 2.25 2.25 0 5 0 C7.75 0 10 2.25 10 5 C10 7.75 7.75 10 5 10 C2.25 10 0 7.75 0 5 Z"></path></pattern><pattern id="pattern4" patternUnits="userSpaceOnUse" x="0" y="0" width="10" height="10" data-x="0" data-y="0" data-width="10" data-height="10" data-multx="1" data-multy="1" stroke="none" patternTransform="matrix(1,0,0,1,0,0)" data-transs="0" data-transf="0" data-source="Pattern 4" data-draw="1" fill="#B3B3B3" fill-opacity="1"><path transform="matrix(1,0,0,1,0,0)" d="M0 5 L4 4 L5 0 L6 4 L10 5 L6 6 L5 10 L4 6 L0 5 Z"></path></pattern><pattern id="pattern5" patternUnits="userSpaceOnUse" x="0" y="0" width="10" height="10" data-x="0" data-y="0" data-width="10" data-height="10" data-multx="1" data-multy="1" stroke="none" patternTransform="matrix(1,0,0,1,0,0)" data-transs="0" data-transf="0" data-source="Pattern 5" data-draw="1" fill="#B3B3B3" fill-opacity="1"><path transform="matrix(1,0,0,1,0,0)" d="M5 10 C-5 2.75 3 -1.75 5 1 C7 -1.75 15 2.75 5 10 Z"></path></pattern><pattern id="pattern6" patternUnits="userSpaceOnUse" x="0" y="0" width="10" height="10" data-x="0" data-y="0" data-width="10" data-height="10" data-multx="1" data-multy="1" stroke="none" patternTransform="matrix(1,0,0,1,0,0)" data-transs="0" data-transf="0" data-source="Pattern 6" data-draw="1" fill="#B3B3B3" fill-opacity="1"><path transform="matrix(1,0,0,1,0,0)" d="M3 0 L7 0 L7 10 L3 10 L3 0 Z"></path></pattern><pattern id="pattern7" patternUnits="userSpaceOnUse" x="0" y="0" width="10" height="10" data-x="0" data-y="0" data-width="10" data-height="10" data-multx="1" data-multy="1" stroke="none" patternTransform="matrix(1,0,0,1,0,0)" data-transs="0" data-transf="0" data-source="Pattern 7" data-draw="1" fill="#B3B3B3" fill-opacity="1"><path transform="matrix(1,0,0,1,0,0)" d="M10 3 L10 7 L0 7 L0 3 L10 3 Z"></path></pattern><pattern id="pattern8" patternUnits="userSpaceOnUse" x="0" y="0" width="10" height="10" data-x="0" data-y="0" data-width="10" data-height="10" data-multx="1" data-multy="1" stroke="none" patternTransform="matrix(1,0,0,1,0,0)" data-transs="0" data-transf="0" data-source="Pattern 8" data-draw="1" fill="#B3B3B3" fill-opacity="1"><path transform="matrix(1,0,0,1,0,0)" d="M0 10 L3 3 L10 0 L7 7 L0 10 Z"></path></pattern><pattern id="pattern9" patternUnits="userSpaceOnUse" x="0" y="0" width="10" height="10" data-x="0" data-y="0" data-width="10" data-height="10" data-multx="1" data-multy="1" stroke="none" patternTransform="matrix(1,0,0,1,0,0)" data-transs="0" data-transf="0" data-source="Pattern 9" data-draw="1" fill="#B3B3B3" fill-opacity="1"><path transform="matrix(1,0,0,1,0,0)" d="M0 4 L10 4 L10 6 L0 6 L0 4 Z M4 10 L4 0 L6 0 L6 10 L4 10 Z"></path></pattern><linearGradient id="linearSystem" gradientUnits="objectBoundingBox" x1="0%" y1="50%" x2="100%" y2="50%" spreadMethod="pad"><stop offset="50%" stop-color="#D0D0D0" stop-opacity="1"></stop><stop offset="100%" stop-color="transparent" stop-opacity="1"></stop></linearGradient><linearGradient id="linearSystem1" gradientUnits="objectBoundingBox" x1="0%" y1="50%" x2="100%" y2="50%" spreadMethod="pad"><stop offset="30%" stop-color="#D0D0D0" stop-opacity="1"></stop><stop offset="100%" stop-color="transparent" stop-opacity="1"></stop></linearGradient><linearGradient id="linearSystem2" gradientUnits="objectBoundingBox" x1="0%" y1="50%" x2="50%" y2="50%" spreadMethod="repeat"><stop offset="30%" stop-color="#D0D0D0" stop-opacity="1"></stop><stop offset="100%" stop-color="transparent" stop-opacity="1"></stop></linearGradient><linearGradient id="linearSystem3" gradientUnits="objectBoundingBox" x1="0%" y1="50%" x2="50%" y2="50%" spreadMethod="reflect"><stop offset="30%" stop-color="#D0D0D0" stop-opacity="1"></stop><stop offset="100%" stop-color="transparent" stop-opacity="1"></stop></linearGradient><radialGradient id="radialSystem" gradientUnits="objectBoundingBox" r="0.5" cx="0.5" fx="0.5" cy="0.5" fy="0.5" spreadMethod="pad"><stop offset="50%" stop-color="#D0D0D0" stop-opacity="1"></stop><stop offset="100%" stop-color="transparent" stop-opacity="1"></stop></radialGradient><pattern id="patternSystem" patternUnits="userSpaceOnUse" x="0" y="0" width="6" height="8"><path stroke="#D0D0D0" stroke-width="5" fill="none" d="M0 0 L0 10"></path></pattern><linearGradient id="linear0" gradientUnits="objectBoundingBox" x1="0%" y1="50%" x2="100%" y2="50%" spreadMethod="pad"><stop offset="0%" stop-color="#FF8000" stop-opacity="1"></stop><stop offset="100%" stop-color="#FFFF00" stop-opacity="1"></stop></linearGradient><linearGradient id="linear1" gradientUnits="objectBoundingBox" x1="0%" y1="50%" x2="100%" y2="50%" spreadMethod="pad"><stop offset="0%" stop-color="#FFFF00" stop-opacity="1"></stop><stop offset="100%" stop-color="#FF8000" stop-opacity="1"></stop></linearGradient><linearGradient id="linearImport" gradientUnits="objectBoundingBox" x1="0%" y1="50%" x2="100%" y2="50%" spreadMethod="pad"><stop offset="0%" stop-color="#FFFFFF" stop-opacity="0.1"></stop><stop offset="100%" stop-color="#000000" stop-opacity="0.1"></stop></linearGradient><radialGradient id="radial0" gradientUnits="objectBoundingBox" r="0.5" cx="0.5" fx="0.5" cy="0.5" fy="0.5" spreadMethod="pad"><stop offset="0%" stop-color="#FF8000" stop-opacity="1"></stop><stop offset="100%" stop-color="#FFFF00" stop-opacity="1"></stop></radialGradient><radialGradient id="radial1" gradientUnits="objectBoundingBox" r="0.5" cx="0.5" fx="0.5" cy="0.5" fy="0.5" spreadMethod="pad"><stop offset="0%" stop-color="#FFFF00" stop-opacity="1"></stop><stop offset="100%" stop-color="#FF8000" stop-opacity="1"></stop></radialGradient><radialGradient id="radialImport" gradientUnits="objectBoundingBox" r="0.5" cx="0.5" fx="0.5" cy="0.5" fy="0.5" spreadMethod="pad"><stop offset="0%" stop-color="#FFFFFF" stop-opacity="0.1"></stop><stop offset="100%" stop-color="#000000" stop-opacity="0.1"></stop></radialGradient></defs><rect id="pageExport" x="0" y="0" width="100" height="100" fill="none" fill-opacity="0" stroke="none" stroke-width="0"></rect><g id="objectsExport" visibility="visible"><path id="path0" d="M20 95 C19.972 69.103 19.694 49.063 34.987 50.034 L49.974 50.034 L64.961 50.034 C80.03 49.506 80.197 69.103 79.948 95 L20 95 Z " visibility="visible" stroke="#000000" stroke-width="0" stroke-opacity="1" stroke-linecap="round" stroke-linejoin="round" stroke-dasharray="none" marker-start="none" marker-end="none" fill="#FFFFFF" fill-rule="evenodd" fill-opacity="1" data-name="curve" data-title="curve" deg="0" data-sw="0" data-grad="0" data-group="0" data-edit="1" filter="none" data-centerx="49.994" data-centery="72.501"></path><path id="path2" d="M36.25 43.25 L43.75 43.25 L43.75 51.75 L36.25 51.75 L36.25 43.25 Z " visibility="visible" stroke="#000000" stroke-width="0" stroke-opacity="1" stroke-linecap="round" stroke-linejoin="round" stroke-dasharray="none" marker-start="none" marker-end="none" fill="#FFFFFF" fill-rule="evenodd" fill-opacity="1" data-name="curve" data-title="curve" deg="0" data-sw="0" data-grad="0" data-group="0" data-edit="1" filter="none" data-centerx="40" data-centery="47.503"></path><path id="path3" d="M56.25 43.25 L63.75 43.25 L63.75 51.75 L56.25 51.75 L56.25 43.25 Z " visibility="visible" stroke="#000000" stroke-width="0" stroke-opacity="1" stroke-linecap="round" stroke-linejoin="round" stroke-dasharray="none" marker-start="none" marker-end="none" fill="#FFFFFF" fill-rule="evenodd" fill-opacity="1" data-name="curve" data-title="curve" deg="0" data-sw="0" data-grad="0" data-group="0" data-edit="1" filter="none" data-centerx="60" data-centery="47.503"></path><path id="path4" d="M32.5 72.5 C32.5 62.875 40.375 55 50 55 C59.625 55 67.5 62.875 67.5 72.5 C67.5 82.125 59.625 90 50 90 C40.375 90 32.5 82.125 32.5 72.5 Z " visibility="visible" stroke="#000000" stroke-width="0" stroke-opacity="1" stroke-linecap="round" stroke-linejoin="round" stroke-dasharray="none" marker-start="none" marker-end="none" fill="#000000" fill-rule="evenodd" fill-opacity="1" data-name="curve" data-title="curve" deg="0" data-sw="0" data-grad="0" data-group="0" data-edit="1" filter="none" data-centerx="50" data-centery="72.497"></path><path id="path5" d="M40 72.5 C40 67 44.5 62.5 50 62.5 C55.5 62.5 60 67 60 72.5 C60 78 55.5 82.5 50 82.5 C44.5 82.5 40 78 40 72.5 Z " visibility="visible" stroke="#000000" stroke-width="0" stroke-opacity="1" stroke-linecap="round" stroke-linejoin="round" stroke-dasharray="none" marker-start="none" marker-end="none" fill="#FFFFFF" fill-rule="evenodd" fill-opacity="1" data-name="curve" data-title="curve" deg="0" data-sw="0" data-grad="0" data-group="0" data-edit="1" filter="none" data-centerx="50" data-centery="72.498"></path><path id="path6" d="M47.6 58.6 C47.6 57.225 48.725 56.1 50.1 56.1 C51.475 56.1 52.6 57.225 52.6 58.6 C52.6 59.975 51.475 61.1 50.1 61.1 C48.725 61.1 47.6 59.975 47.6 58.6 Z " visibility="visible" stroke="#000000" stroke-width="0" stroke-opacity="1" stroke-linecap="round" stroke-linejoin="round" stroke-dasharray="none" marker-start="none" marker-end="none" fill="#FFFFFF" fill-rule="evenodd" fill-opacity="1" data-name="curve" data-title="curve" deg="0" data-sw="0" data-grad="0" data-group="0" data-edit="1" filter="none" data-centerx="50.1" data-centery="58.6"></path><path id="path7" d="M47.6 86.3 C47.6 84.925 48.725 83.8 50.1 83.8 C51.475 83.8 52.6 84.925 52.6 86.3 C52.6 87.675 51.475 88.8 50.1 88.8 C48.725 88.8 47.6 87.675 47.6 86.3 Z " visibility="visible" stroke="#000000" stroke-width="0" stroke-opacity="1" stroke-linecap="round" stroke-linejoin="round" stroke-dasharray="none" marker-start="none" marker-end="none" fill="#FFFFFF" fill-rule="evenodd" fill-opacity="1" data-name="curve" data-title="curve" deg="0" data-sw="0" data-grad="0" data-group="0" data-edit="1" filter="none" data-centerx="50.1" data-centery="86.3"></path><path id="path8" d="M61.3 72.1 C61.3 70.725 62.425 69.6 63.8 69.6 C65.175 69.6 66.3 70.725 66.3 72.1 C66.3 73.475 65.175 74.6 63.8 74.6 C62.425 74.6 61.3 73.475 61.3 72.1 Z " visibility="visible" stroke="#000000" stroke-width="0" stroke-opacity="1" stroke-linecap="round" stroke-linejoin="round" stroke-dasharray="none" marker-start="none" marker-end="none" fill="#FFFFFF" fill-rule="evenodd" fill-opacity="1" data-name="curve" data-title="curve" deg="0" data-sw="0" data-grad="0" data-group="0" data-edit="1" filter="none" data-centerx="63.8" data-centery="72.1"></path><path id="path9" d="M33.7 72.1 C33.7 70.725 34.825 69.6 36.2 69.6 C37.575 69.6 38.7 70.725 38.7 72.1 C38.7 73.475 37.575 74.6 36.2 74.6 C34.825 74.6 33.7 73.475 33.7 72.1 Z " visibility="visible" stroke="#000000" stroke-width="0" stroke-opacity="1" stroke-linecap="round" stroke-linejoin="round" stroke-dasharray="none" marker-start="none" marker-end="none" fill="#FFFFFF" fill-rule="evenodd" fill-opacity="1" data-name="curve" data-title="curve" deg="0" data-sw="0" data-grad="0" data-group="0" data-edit="1" filter="none" data-centerx="36.2" data-centery="72.1"></path><path id="path10" d="M37.9 62.7 C37.9 61.325 39.025 60.2 40.4 60.2 C41.775 60.2 42.9 61.325 42.9 62.7 C42.9 64.075 41.775 65.2 40.4 65.2 C39.025 65.2 37.9 64.075 37.9 62.7 Z " visibility="visible" stroke="#000000" stroke-width="0" stroke-opacity="1" stroke-linecap="round" stroke-linejoin="round" stroke-dasharray="none" marker-start="none" marker-end="none" fill="#FFFFFF" fill-rule="evenodd" fill-opacity="1" data-name="curve" data-title="curve" deg="0" data-sw="0" data-grad="0" data-group="0" data-edit="1" filter="none" data-centerx="40.4" data-centery="62.7"></path><path id="path11" d="M57.1 62.7 C57.1 61.325 58.225 60.2 59.6 60.2 C60.975 60.2 62.1 61.325 62.1 62.7 C62.1 64.075 60.975 65.2 59.6 65.2 C58.225 65.2 57.1 64.075 57.1 62.7 Z " visibility="visible" stroke="#000000" stroke-width="0" stroke-opacity="1" stroke-linecap="round" stroke-linejoin="round" stroke-dasharray="none" marker-start="none" marker-end="none" fill="#FFFFFF" fill-rule="evenodd" fill-opacity="1" data-name="curve" data-title="curve" deg="0" data-sw="0" data-grad="0" data-group="0" data-edit="1" filter="none" data-centerx="59.6" data-centery="62.7"></path><path id="path12" d="M37.9 82.2 C37.9 80.825 39.025 79.7 40.4 79.7 C41.775 79.7 42.9 80.825 42.9 82.2 C42.9 83.575 41.775 84.7 40.4 84.7 C39.025 84.7 37.9 83.575 37.9 82.2 Z " visibility="visible" stroke="#000000" stroke-width="0" stroke-opacity="1" stroke-linecap="round" stroke-linejoin="round" stroke-dasharray="none" marker-start="none" marker-end="none" fill="#FFFFFF" fill-rule="evenodd" fill-opacity="1" data-name="curve" data-title="curve" deg="0" data-sw="0" data-grad="0" data-group="0" data-edit="1" filter="none" data-centerx="40.4" data-centery="82.2"></path><path id="path13" d="M57.1 82.3 C57.1 80.925 58.225 79.8 59.6 79.8 C60.975 79.8 62.1 80.925 62.1 82.3 C62.1 83.675 60.975 84.8 59.6 84.8 C58.225 84.8 57.1 83.675 57.1 82.3 Z " visibility="visible" stroke="#000000" stroke-width="0" stroke-opacity="1" stroke-linecap="round" stroke-linejoin="round" stroke-dasharray="none" marker-start="none" marker-end="none" fill="#FFFFFF" fill-rule="evenodd" fill-opacity="1" data-name="curve" data-title="curve" deg="0" data-sw="0" data-grad="0" data-group="0" data-edit="1" filter="none" data-centerx="59.6" data-centery="82.3"></path><g id="IconPart" transform-origin="center 30%" visibility="visible" stroke="#000000" stroke-width="2" stroke-opacity="1" stroke-dasharray="none" fill="none" fill-opacity="1" data-name="group" data-title="phone" deg="0" data-edit="1" data-centerx="50.013" data-centery="33.024"><path id="path14" d="M12.689 24.816 L26.444 34.766 L30 34.716 C35 39.299 36.2 47.766 30 51.049 L6.389 51.049 C0.189 50.866 6.389 29.899 12.689 24.816 Z " visibility="visible" stroke="#000000" stroke-width="0" stroke-opacity="1" stroke-linecap="round" stroke-linejoin="round" stroke-dasharray="none" marker-start="none" marker-end="none" fill="#FFFFFF" fill-rule="evenodd" fill-opacity="1" data-name="curve" data-title="curve" deg="0" data-sw="0" data-grad="0" data-group="group19" data-edit="1" filter="none" data-centerx="19.02" data-centery="33.22"></path><path id="path16" d="M10.004 29.916 C10.171 19.241 40.5 14.691 50 15.016 C60.3 14.891 90.446 19.441 89.99 29.516 L90 39.516 C88.334 35.486 76.279 40.886 72.557 39.502 C80.417 29.701 60.444 28.08 50 27.716 C40.444 27.883 20.527 29.7 27.666 39.492 C25.388 40.839 15 38.216 10 39.716 L10.004 29.916 Z " visibility="visible" stroke="#000000" stroke-width="0" stroke-opacity="1" stroke-linecap="round" stroke-linejoin="round" stroke-dasharray="none" marker-start="none" marker-end="none" fill="#FFFFFF" fill-rule="evenodd" fill-opacity="1" data-name="curve" data-title="curve" deg="0" data-sw="0" data-grad="0" data-group="group19" data-edit="1" filter="none" data-centerx="50" data-centery="22.73"></path><path id="path18" d="M87.335 24.816 L73.581 34.766 L70.024 34.716 C65.024 39.299 63.824 47.766 70.024 51.049 L93.636 51.049 C99.837 50.866 93.636 29.899 87.335 24.816 Z " visibility="visible" stroke="#000000" stroke-width="0" stroke-opacity="1" stroke-linecap="round" stroke-linejoin="round" stroke-dasharray="none" marker-start="none" marker-end="none" fill="#FFFFFF" fill-rule="evenodd" fill-opacity="1" data-name="curve" data-title="curve" deg="0" data-sw="0" data-grad="0" data-group="group19" data-edit="1" filter="none" data-centerx="81.005" data-centery="33.22"></path></g></g><g id="settings" visibility="hidden" data-dn0="primalDraw" data-dn1="#000000" data-dn2="#D2D2D2" data-dn3="18" data-dn4="#000000" data-dn5="#B3B3B3" data-dn6="1" data-dn7="1" data-dn8="2" data-dn9="round" data-dn10="round" data-dn11="none" data-dn12="none" data-dn13="none" data-dn14="evenodd" data-dn15="10" data-dn16="1" data-dn17="100" data-dn18="100" data-dn19="10" data-dn20="0" data-dn21="1" data-dn22="1" data-dn23="20" data-dn24="path0,path2,path3,path4,path5,path6,path7,path8,path9,path10,path11,path12,path13,group19" data-dn25="2" data-dn26="url(#linear0)" data-dn27="url(#linear1)" data-dn28="url(#radial0)" data-dn29="url(#radial1)" data-dn30="#FF8000" data-dn31="#FFFF00" data-dn32="#000000" data-dn33="1" data-dn34="1" data-dn35="10" data-dn36="" data-dn37="0" data-dn38="79"></g></svg>