<svg xmlns="http://www.w3.org/2000/svg" data-info="draw.ninja" data-name="Event" viewBox="0 0 100 100"><path fill="none" d="M0 0h100v100H0z"/><path d="M25 87.5h50v10H25v-10z" fill="#FFF" fill-rule="evenodd" data-name="curve" data-title="curve" data-sw=".1" data-grad="0" data-group="0" data-edit="1" filter="none" data-centerx="50" data-centery="92.5"/><path stroke="#FFF" stroke-width="5" stroke-linecap="round" stroke-linejoin="round" fill="none" data-name="curve" data-title="curve" data-sw="5" data-grad="0" data-group="0" data-edit="1" filter="none" d="m30 90 20-45" data-centerx="40" data-centery="67.5"/><path stroke="#FFF" stroke-width="5" stroke-linecap="round" stroke-linejoin="round" fill="none" data-name="curve" data-title="curve" data-sw="5" data-grad="0" data-group="0" data-edit="1" filter="none" d="M70 90 50 45" data-centerx="60" data-centery="67.5"/><g id="IconPart" transform-origin="center 45%" stroke-width="2.5" fill="none" data-name="group" data-title="group" data-edit="1" data-centerx="49.999" data-centery="45.002" fill-rule="evenodd"><path d="M49.133 45.936 26.592 23.397l1.875-1.878 22.541 22.538-1.875 1.879z" fill="#FFF" data-name="curve" data-title="curve" data-sw=".1" data-grad="0" data-group="group166" data-edit="1" filter="none" data-centerx="38.799" data-centery="33.727"/><path d="m51.328 13.127-.001 31.871-2.652.004-.004-31.872 2.657-.003z" fill="#FFF" data-name="curve" data-title="curve" data-sw=".1" data-grad="0" data-group="group166" data-edit="1" filter="none" data-centerx="50.001" data-centery="29.063"/><path d="M73.531 23.348 50.996 45.883l-1.878-1.876L71.654 21.47l1.877 1.878z" fill="#FFF" data-name="curve" data-title="curve" data-sw=".1" data-grad="0" data-group="group166" data-edit="1" filter="none" data-centerx="61.326" data-centery="33.676"/><path d="m50.001 43.673 31.869-.002.004 2.657-31.873-.002v-2.653z" fill="#FFF" data-name="curve" data-title="curve" data-sw=".1" data-grad="0" data-group="group166" data-edit="1" filter="none" data-centerx="65.936" data-centery="44.998"/><path d="m50.994 44.067 22.539 22.535-1.877 1.878-22.54-22.539 1.878-1.874z" fill="#FFF" data-name="curve" data-title="curve" data-sw=".1" data-grad="0" data-group="group166" data-edit="1" filter="none" data-centerx="61.324" data-centery="56.273"/><path d="m51.327 44.998.002 31.872-2.656.003.002-31.871 2.652-.004z" fill="#FFF" data-name="curve" data-title="curve" data-sw=".1" data-grad="0" data-group="group166" data-edit="1" filter="none" data-centerx="50" data-centery="60.935"/><path d="m26.561 66.536 22.531-22.537 1.878 1.877-22.536 22.538-1.873-1.878z" fill="#FFF" data-name="curve" data-title="curve" data-sw="1" data-grad="0" data-group="group166" data-edit="1" filter="none" data-centerx="38.766" data-centery="56.204"/><path d="M18.127 43.673h31.874v2.653l-31.871.003-.003-2.656z" fill="#FFF" data-name="curve" data-title="curve" data-sw=".1" data-grad="0" data-group="group166" data-edit="1" filter="none" data-centerx="34.064" data-centery="45.002"/><path d="M42.501 44.999c.006-4.129 3.375-7.501 7.502-7.499 4.127.004 7.499 3.372 7.498 7.501-.006 4.128-3.376 7.5-7.502 7.499-4.127-.006-7.501-3.376-7.498-7.501z" stroke="#000" stroke-width="2.75" stroke-linejoin="round" fill="#FFF" data-name="curve" data-title="curve" data-sw="2.75" data-grad="0" data-group="group166" data-edit="1" filter="none" data-centerx="49.997" data-centery="44.999"/><g stroke="#000" data-name="group" data-title="group" data-edit="1" data-centerx="27.689" data-centery="22.689" stroke-linecap="round" stroke-linejoin="round"><path d="M17.065 22.687c-.003-5.839 4.779-10.622 10.624-10.624 5.843.003 10.625 4.781 10.624 10.626 0 5.842-4.778 10.625-10.623 10.627-5.843-.004-10.626-4.781-10.625-10.629z" stroke-width="1" fill="#FFF" data-name="curve" data-title="curve" data-sw="1" data-grad="0" data-group="group166" data-edit="1" filter="none" data-centerx="27.69" data-centery="22.689"/><path d="M20.125 22.624c-.002-4.121 3.375-7.498 7.499-7.498 4.125.002 7.502 3.374 7.501 7.498.001 4.123-3.373 7.499-7.5 7.502-4.125-.003-7.501-3.376-7.5-7.502z" stroke-width=".1" fill="#000" data-name="curve" data-title="curve" data-sw=".1" data-grad="0" data-group="group166" data-edit="1" filter="none" data-centerx="27.625" data-centery="22.625"/></g><g stroke="#000" data-name="group" data-title="group" data-edit="1" data-centerx="49.994" data-centery="13.127" stroke-linecap="round" stroke-linejoin="round"><path d="M39.371 13.126C39.367 7.286 44.15 2.503 49.992 2.5c5.844.003 10.628 4.782 10.626 10.625 0 5.842-4.779 10.627-10.624 10.629-5.843-.003-10.626-4.781-10.623-10.628z" stroke-width="1" fill="#FFF" data-name="curve" data-title="curve" data-sw="1" data-grad="0" data-group="group166" data-edit="1" filter="none" data-centerx="27.69" data-centery="22.689"/><path d="M42.429 13.063c0-4.122 3.375-7.498 7.501-7.5 4.125.001 7.502 3.373 7.499 7.5.001 4.123-3.373 7.499-7.498 7.5-4.126-.001-7.502-3.375-7.502-7.5z" stroke-width=".1" fill="#000" data-name="curve" data-title="curve" data-sw=".1" data-grad="0" data-group="group166" data-edit="1" filter="none" data-centerx="27.625" data-centery="22.625"/></g><g stroke="#000" data-name="group" data-title="group" data-edit="1" data-centerx="72.314" data-centery="22.687" stroke-linecap="round" stroke-linejoin="round"><path d="M61.692 22.686c-.004-5.841 4.778-10.625 10.621-10.625 5.843.002 10.626 4.781 10.626 10.625-.001 5.841-4.778 10.626-10.623 10.628-5.846-.005-10.627-4.782-10.624-10.628z" stroke-width="1" fill="#FFF" data-name="curve" data-title="curve" data-sw="1" data-grad="0" data-group="group166" data-edit="1" filter="none" data-centerx="27.69" data-centery="22.689"/><path d="M64.749 22.622c.001-4.12 3.375-7.499 7.499-7.498 4.126.001 7.503 3.374 7.502 7.498 0 4.125-3.374 7.501-7.5 7.501-4.124-.003-7.5-3.374-7.501-7.501z" stroke-width=".1" fill="#000" data-name="curve" data-title="curve" data-sw=".1" data-grad="0" data-group="group166" data-edit="1" filter="none" data-centerx="27.625" data-centery="22.625"/></g><g stroke="#000" data-name="group" data-title="group" data-edit="1" data-centerx="81.874" data-centery="44.997" stroke-linecap="round" stroke-linejoin="round"><path d="M71.249 44.996c-.001-5.838 4.78-10.624 10.624-10.627 5.844.004 10.626 4.782 10.624 10.627.001 5.843-4.777 10.626-10.622 10.628-5.843-.004-10.626-4.782-10.626-10.628z" stroke-width="1" fill="#FFF" data-name="curve" data-title="curve" data-sw="1" data-grad="0" data-group="group166" data-edit="1" filter="none" data-centerx="27.69" data-centery="22.689"/><path d="M74.31 44.932c-.002-4.121 3.374-7.498 7.499-7.498 4.125.002 7.502 3.374 7.5 7.497.003 4.126-3.372 7.502-7.498 7.501-4.125-.001-7.503-3.373-7.501-7.5z" stroke-width=".1" fill="#000" data-name="curve" data-title="curve" data-sw=".1" data-grad="0" data-group="group166" data-edit="1" filter="none" data-centerx="27.625" data-centery="22.625"/></g><g stroke="#000" data-name="group" data-title="group" data-edit="1" data-centerx="72.314" data-centery="67.317" stroke-linecap="round" stroke-linejoin="round"><path d="M61.692 67.316c-.005-5.841 4.779-10.624 10.621-10.625 5.844.002 10.627 4.781 10.625 10.624 0 5.844-4.778 10.627-10.622 10.629-5.845-.004-10.627-4.78-10.624-10.628z" stroke-width="1" fill="#FFF" data-name="curve" data-title="curve" data-sw="1" data-grad="0" data-group="group166" data-edit="1" filter="none" data-centerx="27.69" data-centery="22.689"/><path d="M64.75 67.253c-.001-4.121 3.374-7.499 7.497-7.498 4.126 0 7.504 3.373 7.503 7.496 0 4.125-3.373 7.501-7.498 7.502-4.128-.003-7.502-3.374-7.502-7.5z" stroke-width=".1" fill="#000" data-name="curve" data-title="curve" data-sw=".1" data-grad="0" data-group="group166" data-edit="1" filter="none" data-centerx="27.625" data-centery="22.625"/></g><g stroke="#000" data-name="group" data-title="group" data-edit="1" data-centerx="50.004" data-centery="76.877" stroke-linecap="round" stroke-linejoin="round"><path d="M39.38 76.875c-.001-5.84 4.781-10.624 10.624-10.625 5.841.002 10.625 4.78 10.625 10.626-.001 5.844-4.779 10.625-10.623 10.628-5.845-.004-10.627-4.781-10.626-10.629z" stroke-width="1" fill="#FFF" data-name="curve" data-title="curve" data-sw="1" data-grad="0" data-group="group166" data-edit="1" filter="none" data-centerx="27.69" data-centery="22.689"/><path d="M42.44 76.811c0-4.12 3.374-7.496 7.499-7.498 4.125.002 7.503 3.376 7.5 7.5.001 4.123-3.372 7.499-7.497 7.499-4.128-.003-7.503-3.373-7.502-7.501z" stroke-width=".1" fill="#000" data-name="curve" data-title="curve" data-sw=".1" data-grad="0" data-group="group166" data-edit="1" filter="none" data-centerx="27.625" data-centery="22.625"/></g><g stroke="#000" data-name="group" data-title="group" data-edit="1" data-centerx="27.694" data-centery="67.317" stroke-linecap="round" stroke-linejoin="round"><path d="M17.07 67.316c-.003-5.84 4.781-10.625 10.623-10.626 5.844.003 10.624 4.782 10.626 10.627-.002 5.842-4.78 10.624-10.623 10.627-5.845-.003-10.627-4.781-10.626-10.628z" stroke-width="1" fill="#FFF" data-name="curve" data-title="curve" data-sw="1" data-grad="0" data-group="group166" data-edit="1" filter="none" data-centerx="27.69" data-centery="22.689"/><path d="M20.128 67.252c.001-4.12 3.376-7.498 7.5-7.499 4.126.003 7.503 3.375 7.502 7.499.001 4.124-3.373 7.5-7.497 7.502-4.127-.004-7.504-3.375-7.505-7.502z" stroke-width=".1" fill="#000" data-name="curve" data-title="curve" data-sw=".1" data-grad="0" data-group="group166" data-edit="1" filter="none" data-centerx="27.625" data-centery="22.625"/></g><g stroke="#000" data-name="group" data-title="group" data-edit="1" data-centerx="18.124" data-centery="45.007" stroke-linecap="round" stroke-linejoin="round"><path d="M7.501 45.005c-.003-5.839 4.779-10.621 10.622-10.625 5.841.003 10.627 4.783 10.625 10.626.001 5.842-4.778 10.627-10.623 10.629-5.844-.005-10.625-4.782-10.624-10.63z" stroke-width="1" fill="#FFF" data-name="curve" data-title="curve" data-sw="1" data-grad="0" data-group="group166" data-edit="1" filter="none" data-centerx="27.69" data-centery="22.689"/><path d="M10.56 44.942c-.001-4.121 3.373-7.498 7.499-7.499 4.125.002 7.503 3.375 7.501 7.5-.001 4.124-3.373 7.5-7.5 7.501-4.124-.004-7.501-3.374-7.5-7.502z" stroke-width=".1" fill="#000" data-name="curve" data-title="curve" data-sw=".1" data-grad="0" data-group="group166" data-edit="1" filter="none" data-centerx="27.625" data-centery="22.625"/></g></g></svg>