<svg xmlns="http://www.w3.org/2000/svg" data-info="draw.ninja" data-name="info" viewBox="0 0 100 100"><path fill="none" d="M0 0h100v100H0z"/><g stroke-linejoin="round"><path d="M18.75 26h2.5v34h-2.5V26z" stroke="#FFF" stroke-width=".1" stroke-linecap="round" fill="#FFF" fill-rule="evenodd" data-name="curve" data-title="curve" data-sw=".1" data-grad="0" data-group="0" data-edit="1" filter="none" data-centerx="20" data-centery="43.002"/><path d="M12.5 25c0-4.125 3.375-7.5 7.5-7.5s7.5 3.375 7.5 7.5-3.375 7.5-7.5 7.5-7.5-3.375-7.5-7.5z" stroke="#FFF" stroke-width=".1" stroke-linecap="round" fill="#FFF" fill-rule="evenodd" data-name="curve" data-title="curve" data-sw=".1" data-grad="0" data-group="0" data-edit="1" filter="none" data-centerx="20" data-centery="25.002"/><path d="M5 50h90v47.5H5V50z" stroke="#FFF" stroke-width=".1" stroke-linecap="round" fill="#FFF" fill-rule="evenodd" data-name="curve" data-title="curve" data-sw=".1" data-grad="0" data-group="0" data-edit="1" filter="none" data-centerx="50" data-centery="73.752"/><path d="M10 54h80v22.75H10V54z" stroke="#000" stroke-width=".1" stroke-linecap="round" fill-rule="evenodd" data-name="curve" data-title="curve" data-sw=".1" data-grad="0" data-group="0" data-edit="1" filter="none" data-centerx="49.997" data-centery="65.385"/><path d="M13.75 87c0-3.437 2.813-6.25 6.25-6.25 3.438 0 6.25 2.813 6.25 6.25 0 3.438-2.812 6.25-6.25 6.25-3.437 0-6.25-2.812-6.25-6.25z" stroke="#FFF" stroke-width=".1" stroke-linecap="round" fill-rule="evenodd" data-name="curve" data-title="curve" data-sw=".1" data-grad="0" data-group="0" data-edit="1" filter="none" data-centerx="20.005" data-centery="87.004"/><path d="M30.5 87c0-3.437 2.813-6.25 6.25-6.25 3.438 0 6.25 2.813 6.25 6.25 0 3.438-2.812 6.25-6.25 6.25-3.437 0-6.25-2.812-6.25-6.25z" stroke="#FFF" stroke-width=".1" stroke-linecap="round" fill-rule="evenodd" data-name="curve" data-title="curve" data-sw=".1" data-grad="0" data-group="0" data-edit="1" filter="none" data-centerx="36.758" data-centery="87.003"/><path d="M47.5 80h40v3h-40v-3z" stroke="#000" stroke-width=".1" stroke-linecap="round" fill-rule="evenodd" data-name="curve" data-title="curve" data-sw=".1" data-grad="0" data-group="0" data-edit="1" filter="none" data-centerx="67.499" data-centery="81.503"/><path d="M47.5 91h40v3h-40v-3z" stroke="#000" stroke-width=".1" stroke-linecap="round" fill-rule="evenodd" data-name="curve" data-title="curve" data-sw=".1" data-grad="0" data-group="0" data-edit="1" filter="none" data-centerx="67.499" data-centery="92.503"/><path d="M47.5 85.286h40v3h-40v-3z" stroke="#000" stroke-width=".1" stroke-linecap="round" fill-rule="evenodd" data-name="curve" data-title="curve" data-sw=".1" data-grad="0" data-group="0" data-edit="1" filter="none" data-centerx="67.499" data-centery="86.783"/><path d="M33.1 87.05a3.762 3.762 0 0 1 3.75-3.75 3.761 3.761 0 0 1 3.75 3.75 3.76 3.76 0 0 1-3.75 3.75 3.761 3.761 0 0 1-3.75-3.75z" stroke="#FFF" stroke-width=".1" stroke-linecap="round" fill="#FFF" fill-rule="evenodd" data-name="curve" data-title="curve" data-sw=".1" data-grad="0" data-group="0" data-edit="1" filter="none" data-centerx="36.855" data-centery="87.052"/><path d="M16.25 87.05A3.762 3.762 0 0 1 20 83.3a3.761 3.761 0 0 1 3.75 3.75A3.76 3.76 0 0 1 20 90.8a3.761 3.761 0 0 1-3.75-3.75z" stroke="#FFF" stroke-width=".1" stroke-linecap="round" fill="#FFF" fill-rule="evenodd" data-name="curve" data-title="curve" data-sw=".1" data-grad="0" data-group="0" data-edit="1" filter="none" data-centerx="20.005" data-centery="87.052"/><path d="M12.5 65h11.112l5.555-7.5 8.334 15 8.333-15 8.333 15 8.332-15 8.334 15 5.556-7.5H87.5" stroke="#FFF" fill="none" data-name="curve" data-title="graph" data-sw="1" data-grad="0" data-group="0" data-edit="1" filter="none" data-centerx="50" data-centery="65.003"/><path class="Wave_0" id="IconPart" stroke="#FFF" stroke-width="2.5" stroke-linecap="round" fill="none" data-name="curve" data-title="wave_0" data-sw="2.5" data-grad="0" data-group="0" data-edit="1" filter="none" d="M33.75 20c2.667 2.526 2.667 7.55 0 10" data-centerx="34.752" data-centery="25"/><path id="IconPart" class="Wave_1" stroke="#FFF" stroke-width="3" stroke-linecap="round" fill="none" data-name="curve" data-title="wave_1" data-sw="3" data-grad="0" data-group="0" data-edit="1" filter="none" d="M45 17.5c3.333 3.788 3.333 11.325 0 15" data-centerx="46.253" data-centery="25"/><path id="IconPart" class="Wave_2" stroke="#FFF" stroke-width="3.25" stroke-linecap="round" fill="none" data-name="curve" data-title="wave_2" data-sw="3.25" data-grad="0" data-group="0" data-edit="1" filter="none" d="M57.5 14.375c5 5.367 5 16.044 0 21.25" data-centerx="59.38" data-centery="24.999"/><path id="IconPart" class="Wave_3" stroke="#FFF" stroke-width="3.5" stroke-linecap="round" fill="none" data-name="curve" data-title="wave_3" data-sw="3.5" data-grad="0" data-group="0" data-edit="1" filter="none" d="M71.25 11.25c5 6.945 5 20.763 0 27.5" data-centerx="73.13" data-centery="24.998"/><path id="IconPart" class="Wave_4" stroke="#FFF" stroke-width="4" stroke-linecap="round" fill="none" data-name="curve" data-title="wave_4" data-sw="4" data-grad="0" data-group="0" data-edit="1" filter="none" d="M85 7.5c6.777 8.839 6.777 26.425 0 35" data-centerx="87.548" data-centery="25.001"/></g></svg>