<svg xmlns="http://www.w3.org/2000/svg" data-info="draw.ninja" data-name="Pleasure" viewBox="0 0 100 100"><path fill="none" d="M0 0h100v100H0z"/><g stroke="#000" stroke-width="2" fill="none"><g id="IconPart" class="Eight" transform-origin="center center" data-name="group" data-title="Eight" data-edit="1" data-centerx="50" data-centery="50.007"><path d="M30 19.999h40V80H30V19.999z" stroke-width="1" stroke-linecap="round" stroke-linejoin="round" fill="#FFF" fill-rule="evenodd" data-name="curve" data-title="curve" data-sw="1" data-grad="0" data-group="group89" data-edit="1" filter="none" data-centerx="37.244" data-centery="61.478"/><path d="m63.205 66.573 2.5-3.75 2.5 3.75-2.5 3.75-2.5-3.75z" fill="#000" fill-rule="evenodd" data-name="curve" data-title="curve" data-sw="0" data-grad="0" data-group="group89" data-edit="1" filter="none" data-centerx="52.95" data-centery="78.044" stroke="none"/><path d="m31.872 33.017 2.5-3.75 2.5 3.75-2.5 3.75-2.5-3.75z" fill="#000" fill-rule="evenodd" data-name="curve" data-title="curve" data-sw="0" data-grad="0" data-group="group89" data-edit="1" filter="none" data-centerx="21.616" data-centery="44.493" stroke="none"/><path d="m39.839 50.4 10-15 10 15-10 15-10-15z" fill="#000" fill-rule="evenodd" data-name="curve" data-title="curve" data-sw="0" data-grad="0" data-group="group89" data-edit="1" filter="none" data-centerx="37.083" data-centery="61.878" stroke="none"/><g data-name="group" data-title="text" data-edit="1" data-centerx="50.76" data-centery="75.04" data-group="0"><text font-family="Verdana" font-size="18" font-weight="bold" transform="matrix(-.517 0 0 -.459 391.937 191.324)" stroke="none" stroke-width="0" fill="#000" data-name="text" data-title="text" data-sw="0" data-group="group89" data-trans="translate(-590,-230) matrix(-0.517,0,0,-0.459,981.937,421.324)" data-edit="1" filter="none" x="624.429" y="260.429" data-centerx="53.044" data-centery="86.522">8</text></g><g data-name="group" data-title="text" data-edit="1" data-centerx="19.34" data-centery="24.97" data-group="0"><text font-family="Verdana" font-size="18" font-weight="bold" transform="matrix(.517 0 0 .459 -291.758 -91.311)" stroke="none" stroke-width="0" fill="#000" data-name="text" data-title="text" data-sw="0" data-group="group89" data-trans="translate(-590,-230) matrix(0.517,0,0,0.459,298.242,138.689)" data-edit="1" filter="none" x="624.429" y="260.429" data-centerx="21.624" data-centery="36.449">8</text></g></g><g id="IconPart" class="A" transform-origin="center center" data-name="group" data-title="A" data-edit="1" data-centerx="50" data-centery="50.007"><path d="m30 20 40-.001V80H30V20z" stroke-width="1" stroke-linecap="round" stroke-linejoin="round" fill="#FFF" fill-rule="evenodd" data-name="curve" data-title="curve" data-sw="1" data-grad="0" data-group="group71" data-edit="1" filter="none" data-centerx="34.961" data-centery="49.999"/><g data-name="group" data-title="text" data-edit="1" data-centerx="19.66" data-centery="25.01" data-group="0"><text font-family="Verdana" font-size="18" font-weight="bold" transform="matrix(.517 0 0 .459 -291.758 -91.311)" stroke="none" stroke-width="0" fill="#000" data-name="text" data-title="text" data-sw="0" data-group="group71" data-trans="translate(-590,-230) matrix(0.517,0,0,0.459,298.242,138.689)" data-edit="1" filter="none" x="624.429" y="260.429" data-centerx="19.658" data-centery="25.007">A</text></g><g data-name="group" data-title="text" data-edit="1" data-centerx="50.44" data-centery="75.01" data-group="0"><text font-family="Verdana" font-size="18" font-weight="bold" transform="matrix(-.517 0 0 -.459 391.937 191.325)" stroke="none" stroke-width="0" fill="#000" data-name="text" data-title="text" data-sw="0" data-group="group71" data-trans="translate(-590,-230) matrix(-0.517,0,0,-0.459,981.937,421.325)" data-edit="1" filter="none" x="624.429" y="260.429" data-centerx="50.442" data-centery="75.007">A</text></g><path d="M37.576 54.704c-.04-8.107 10.189-12.25 12.484-17.517 2.16 5.139 12.51 9.636 12.516 17.349 0 3.696-4.114 7.645-11.439 3.546.104.02 4.638 4.14 4.626 4.104H43.95c-.123-.027 5.167-4.044 5.176-4.064-7.412 4.022-11.53-.009-11.55-3.418z" fill="#000" fill-rule="evenodd" data-name="curve" data-title="curve" data-sw="0" data-grad="0" data-group="group71" data-edit="1" filter="none" data-centerx="35.039" data-centery="49.688" stroke="none"/><path d="M32.147 33.047c-.008-1.621 2.038-2.45 2.497-3.503.432 1.029 2.502 1.927 2.503 3.47 0 .739-.823 1.529-2.288.709.021.004.928.828.925.821h-2.362c-.025-.006 1.033-.81 1.035-.813-1.483.804-2.306-.002-2.31-.684z" fill="#000" fill-rule="evenodd" data-name="curve" data-title="curve" data-sw="0" data-grad="0" data-group="group71" data-edit="1" filter="none" data-centerx="19.612" data-centery="32.04" stroke="none"/></g><g id="IconPart" class="Joker" transform-origin="center center" data-name="group" data-title="Joker" data-edit="1" data-centerx="50" data-centery="50.007"><path d="M30.001 20 70 19.999v60.002H30L30.001 20z" stroke-width="1" stroke-linecap="round" stroke-linejoin="round" fill="#FFF" fill-rule="evenodd" data-name="curve" data-title="curve" data-sw="1" data-grad="0" data-group="group49" data-edit="1" filter="none" data-centerx="50" data-centery="50"/><g stroke-width="NaN" data-name="group" data-title="group" data-edit="1" data-centerx="50" data-centery="50" data-group="0" fill="#000" fill-rule="evenodd" stroke="none"><path d="M46.215 47.164c2.352-9.643 5.177-12.277 12.519-6.962-6.119-1.082-5.649 3.811-.941 8.844 3.598-2.539 9.483 5.645 7.529 10.068-3.976-5.975-8.26-2.871-6.871 3.386l-14.121-.001c3.389-9.29-4.424-7.708-9.412-4.233 2.542-7.719 6.119-11.313 11.297-11.102z" data-name="curve" data-title="curve" data-sw="0" data-grad="0" data-group="group49" data-edit="1" filter="none" data-centerx="50.462" data-centery="50.868"/><path d="M32.5 59.039c-.001-1.101.924-2 2.053-2 1.13 0 2.053.9 2.053 2s-.924 2-2.053 2-2.053-.9-2.053-2z" data-name="curve" data-title="curve" data-sw="0" data-grad="0" data-group="group49" data-edit="1" filter="none" data-centerx="34.698" data-centery="59.911"/><path d="M57.339 40.439c0-1.1.924-2.001 2.053-2 1.128 0 2.052.901 2.051 2.001 0 1.099-.923 1.999-2.051 1.999-1.13-.001-2.053-.9-2.053-2z" data-name="curve" data-title="curve" data-sw="0" data-grad="0" data-group="group49" data-edit="1" filter="none" data-centerx="59.536" data-centery="41.311"/><path d="M63.395 60.339c-.001-1.101.923-2 2.052-2s2.053.9 2.053 2-.925 2-2.053 2c-1.129 0-2.052-.9-2.052-2z" data-name="curve" data-title="curve" data-sw="0" data-grad="0" data-group="group49" data-edit="1" filter="none" data-centerx="65.592" data-centery="61.211"/></g><g data-name="group" data-title="text" data-edit="1" data-centerx="45.375" data-centery="25.007" data-group="0"><text font-family="Verdana" font-size="18" font-weight="bold" transform="matrix(.517 0 0 .459 -291.758 -91.31)" stroke="none" stroke-width="0" fill="#000" data-name="text" data-title="text" data-sw="0" data-group="group49" data-trans="translate(-590,-230) matrix(0.517,0,0,0.459,298.242,138.69)" data-edit="1" filter="none" x="624.429" y="260.429" data-centerx="46.893" data-centery="28.787">Joker</text></g><g data-name="group" data-title="text" data-edit="1" data-centerx="54.804" data-centery="75.007" data-group="0"><text font-family="Verdana" font-size="18" font-weight="bold" transform="matrix(-.517 0 0 -.459 391.937 191.325)" stroke="none" stroke-width="0" fill="#000" data-name="text" data-title="text" data-sw="0" data-group="group49" data-trans="translate(-590,-230) matrix(-0.517,0,0,-0.459,981.937,421.325)" data-edit="1" filter="none" x="624.429" y="260.429" data-centerx="58.332" data-centery="118.756">Joker</text></g></g></g></svg>